<?xml version="1.0" encoding="UTF-8" standalone="no"?>
<svg
   xmlns:dc="http://purl.org/dc/elements/1.1/"
   xmlns:cc="http://creativecommons.org/ns#"
   xmlns:rdf="http://www.w3.org/1999/02/22-rdf-syntax-ns#"
   xmlns:svg="http://www.w3.org/2000/svg"
   xmlns="http://www.w3.org/2000/svg"
   xmlns:xlink="http://www.w3.org/1999/xlink"
   xmlns:sodipodi="http://sodipodi.sourceforge.net/DTD/sodipodi-0.dtd"
   xmlns:inkscape="http://www.inkscape.org/namespaces/inkscape"
   viewBox="0 0 600 160"
   id="svg2"
   version="1.1"
   inkscape:version="0.48.4 r9939"
   width="100%"
   height="100%"
   sodipodi:docname="logo.svg">
  <metadata
     id="metadata556">
    <rdf:RDF>
      <cc:Work
         rdf:about="">
        <dc:format>image/svg+xml</dc:format>
        <dc:type
           rdf:resource="http://purl.org/dc/dcmitype/StillImage" />
        <dc:title></dc:title>
      </cc:Work>
    </rdf:RDF>
  </metadata>
  <sodipodi:namedview
     pagecolor="#ffffff"
     bordercolor="#666666"
     borderopacity="1"
     objecttolerance="10"
     gridtolerance="10"
     guidetolerance="10"
     inkscape:pageopacity="0"
     inkscape:pageshadow="2"
     inkscape:window-width="640"
     inkscape:window-height="480"
     id="namedview554"
     showgrid="false"
     inkscape:zoom="0.55666667"
     inkscape:cx="300"
     inkscape:cy="80"
     inkscape:window-x="0"
     inkscape:window-y="27"
     inkscape:window-maximized="0"
     inkscape:current-layer="svg2" />
  <defs
     id="defs4">
    <path
       id="Z"
       d="m3.214 18.874c0 8.095-6.562 14.656-14.656 14.656-8.095 0-14.656-6.562-14.656-14.656 0-8.095 6.562-14.656 14.656-14.656 8.095 0 14.656 6.562 14.656 14.656" />
    <path
       id="a"
       d="m-16.11464 36.950958a2.933863 2.933863 0 0 1 -4.149109 -4.149108 2.933863 2.933863 0 0 1 4.149109 4.149108" />
    <path
       id="b"
       d="m34.933862 27.47373a2.933863 2.933863 0 0 1 -5.867724 0 2.933863 2.933863 0 0 1 5.867724 0" />
    <path
       id="c"
       d="m31.807433 24.986145a.85083 1.575261 45 1 1 -2.227662 2.227662 .85083 1.575261 45 1 1 2.227662 -2.227662" />
    <filter
       id="Y">
      <feGaussianBlur
         stdDeviation=".93087"
         id="feGaussianBlur11" />
    </filter>
    <filter
       id="X">
      <feGaussianBlur
         stdDeviation="2.12819"
         id="feGaussianBlur14" />
    </filter>
    <linearGradient
       xlink:href="#1"
       id="N"
       gradientUnits="userSpaceOnUse"
       x1="-11.08"
       y1="4.243"
       x2="-11.417"
       y2="34.675" />
    <linearGradient
       id="M"
       y2="394.88"
       gradientUnits="userSpaceOnUse"
       x2="457.54"
       gradientTransform="matrix(1 0 0 .83315 0 68.53)"
       y1="183.3"
       x1="440.73">
      <stop
         stop-color="#fff"
         id="stop18" />
      <stop
         stop-color="#fff"
         stop-opacity="0"
         offset="1"
         id="stop20" />
    </linearGradient>
    <linearGradient
       xlink:href="#M"
       id="L"
       gradientUnits="userSpaceOnUse"
       x1="-18.09"
       y1="31.04"
       x2="-17.873"
       y2="33.822" />
    <linearGradient
       xlink:href="#K"
       id="J"
       gradientUnits="userSpaceOnUse"
       x1="-18.13"
       y1="31.96"
       x2="-18.244"
       y2="37.721" />
    <linearGradient
       xlink:href="#1"
       id="I"
       gradientUnits="userSpaceOnUse"
       x1="-11.08"
       y1="4.243"
       x2="-11.417"
       y2="34.675" />
    <linearGradient
       xlink:href="#P"
       id="O"
       gradientUnits="userSpaceOnUse"
       x1="29.945"
       y1="25.435"
       x2="33.957"
       y2="29.622" />
    <linearGradient
       xlink:href="#M"
       id="Q"
       gradientUnits="userSpaceOnUse"
       x1="29.18"
       y1="24.589"
       x2="31.3"
       y2="26.398" />
    <linearGradient
       xlink:href="#M"
       id="W"
       gradientUnits="userSpaceOnUse"
       x1="-18.09"
       y1="31.04"
       x2="-17.873"
       y2="33.822" />
    <linearGradient
       xlink:href="#K"
       id="V"
       gradientUnits="userSpaceOnUse"
       x1="-18.242"
       y1="31.924"
       x2="-18.28"
       y2="37.757" />
    <linearGradient
       xlink:href="#1"
       id="0"
       gradientUnits="userSpaceOnUse"
       x1="-11.346"
       y1="4.359"
       x2="-11.538"
       y2="32.913" />
    <linearGradient
       xlink:href="#1"
       id="U"
       gradientUnits="userSpaceOnUse"
       x1="-11.08"
       y1="4.243"
       x2="-11.417"
       y2="34.675" />
    <linearGradient
       xlink:href="#P"
       id="S"
       gradientUnits="userSpaceOnUse"
       x1="30.03"
       y1="25.335"
       x2="34.07"
       y2="29.46" />
    <linearGradient
       xlink:href="#1"
       id="R"
       gradientUnits="userSpaceOnUse"
       x1="-11.08"
       y1="4.243"
       x2="-11.417"
       y2="34.675" />
    <linearGradient
       xlink:href="#M"
       id="T"
       gradientUnits="userSpaceOnUse"
       x1="29.18"
       y1="24.589"
       x2="31.3"
       y2="26.398" />
    <linearGradient
       y2="373.65"
       x2="444.45"
       y1="282.35"
       x1="440.73"
       gradientTransform="matrix(.07885 0 0 .09728-18.921 7.975)"
       gradientUnits="userSpaceOnUse"
       id="H"
       xlink:href="#5" />
    <linearGradient
       xlink:href="#5"
       id="9"
       gradientUnits="userSpaceOnUse"
       x1="39.665"
       y1="7.426"
       x2="45.679"
       y2="13.06" />
    <linearGradient
       x1="440.73"
       y1="183.3"
       gradientTransform="matrix(1 0 0 .83315 0 68.53)"
       x2="457.54"
       gradientUnits="userSpaceOnUse"
       y2="394.88"
       id="5">
      <stop
         stop-color="#fff"
         stop-opacity=".627"
         id="stop37" />
      <stop
         offset="1"
         stop-opacity="0"
         stop-color="#fff"
         id="stop39" />
    </linearGradient>
    <linearGradient
       xlink:href="#5"
       id="4"
       gradientUnits="userSpaceOnUse"
       gradientTransform="matrix(.07885 0 0 .09728-18.921-24.547)"
       x1="440.73"
       y1="282.35"
       x2="444.45"
       y2="373.65" />
    <linearGradient
       xlink:href="#1"
       id="6"
       gradientUnits="userSpaceOnUse"
       x1="-11.346"
       y1="4.359"
       x2="-11.538"
       y2="32.913" />
    <linearGradient
       xlink:href="#8"
       id="7"
       x1="39.462"
       y1="7.04"
       x2="57.35"
       y2="25.04"
       gradientUnits="userSpaceOnUse" />
    <linearGradient
       xlink:href="#1"
       id="A"
       gradientUnits="userSpaceOnUse"
       x1="-11.346"
       y1="4.359"
       x2="-11.538"
       y2="32.913" />
    <linearGradient
       xlink:href="#G"
       id="F"
       gradientUnits="userSpaceOnUse"
       x1="5.394"
       y1="36.89"
       x2="27.2"
       y2="58.83" />
    <linearGradient
       xlink:href="#1"
       id="E"
       gradientUnits="userSpaceOnUse"
       x1="-11.346"
       y1="4.359"
       x2="-11.538"
       y2="32.913" />
    <linearGradient
       xlink:href="#C"
       id="B"
       gradientUnits="userSpaceOnUse"
       x1="36.796"
       y1="37.17"
       x2="59.02"
       y2="58.97" />
    <linearGradient
       y2="373.65"
       x2="444.45"
       y1="282.35"
       x1="440.73"
       gradientTransform="matrix(.07885 0 0 .09728 13.6 7.975)"
       gradientUnits="userSpaceOnUse"
       id="D"
       xlink:href="#5" />
    <linearGradient
       id="1">
      <stop
         stop-color="#0a0a0a"
         id="stop50" />
      <stop
         offset="1"
         stop-color="#969696"
         id="stop52" />
    </linearGradient>
    <linearGradient
       xlink:href="#3"
       id="2"
       gradientUnits="userSpaceOnUse"
       x1="15.775"
       y1="2.046"
       x2="15.526"
       y2="29.26" />
    <radialGradient
       id="3"
       gradientUnits="userSpaceOnUse"
       cy="421.87"
       cx="262.05"
       r="223.36">
      <stop
         stop-color="#3cf"
         id="stop56" />
      <stop
         stop-color="#031cff"
         offset="1"
         id="stop58" />
    </radialGradient>
    <radialGradient
       id="8"
       gradientUnits="userSpaceOnUse"
       cy="421.87"
       cx="262.05"
       r="223.36">
      <stop
         stop-color="#f30"
         id="stop61" />
      <stop
         stop-color="#af0707"
         offset="1"
         id="stop63" />
    </radialGradient>
    <radialGradient
       id="G"
       gradientUnits="userSpaceOnUse"
       cy="421.87"
       cx="262.05"
       r="223.36">
      <stop
         stop-color="#6f3"
         id="stop66" />
      <stop
         stop-color="#597f0e"
         offset="1"
         id="stop68" />
    </radialGradient>
    <radialGradient
       id="K"
       gradientUnits="userSpaceOnUse"
       cy="421.87"
       cx="262.05"
       r="223.36">
      <stop
         stop-color="#fff"
         id="stop71" />
      <stop
         stop-color="#d2d2d2"
         offset="1"
         id="stop73" />
    </radialGradient>
    <radialGradient
       id="P"
       gradientUnits="userSpaceOnUse"
       cy="421.87"
       cx="262.05"
       r="223.36">
      <stop
         stop-color="#1e1e1e"
         id="stop76" />
      <stop
         offset="1"
         id="stop78" />
    </radialGradient>
    <radialGradient
       id="C"
       gradientUnits="userSpaceOnUse"
       cy="421.87"
       cx="262.05"
       r="223.36">
      <stop
         stop-color="#ffff80"
         id="stop81" />
      <stop
         stop-color="#e47a00"
         offset="1"
         id="stop83" />
    </radialGradient>
  </defs>
  <g
     transform="translate(0-892.36)"
     id="g85">
    <g
       transform="matrix(2.45684 0 0 2.45684 5.61 895.58)"
       opacity=".72"
       filter="url(#Y)"
       id="g87">
      <g
         id="g89">
        <use
           transform="matrix(1.0074 0 0 1.0074 27.26-3.277)"
           xlink:href="#Z"
           id="use91" />
        <path
           d="M25.356667 25.356666A13.606388 13.606388 0 0 1 6.114329 6.114327 13.606388 13.606388 0 1 1 25.356667 25.356666"
           id="path93" />
        <path
           d="m25.286683 9.109155a9.45649 6.301245 0 1 1 -18.91219 .000001 9.45649 6.301245 0 1 1 18.91219 -.000001"
           id="path95" />
      </g>
      <g
         id="g97">
        <use
           transform="matrix(1.0074 0 0 1.0074 59.791-3.277)"
           xlink:href="#Z"
           id="use99" />
        <g
           transform="matrix(.76285.76285-.76285.76285 23.57-33.09)"
           id="g101">
          <path
             d="m60.797903 15.814302a12.612205 12.612205 0 0 1 -25.22441 0 12.612205 12.612205 0 1 1 25.22441 0"
             id="path103" />
          <path
             d="M49.9199 5.284113A5.840829 8.765528 45 1 1 37.524088 17.679926 5.840829 8.765528 45 1 1 49.9199 5.284113"
             id="path105" />
        </g>
      </g>
      <g
         id="g107">
        <use
           transform="matrix(1.0074 0 0 1.0074 59.791 29.25)"
           xlink:href="#Z"
           id="use109" />
        <path
           d="m63.60498 48a15.765256 15.765256 0 0 1 -31.530512 0 15.765256 15.765256 0 1 1 31.530512 0"
           transform="matrix(.61028.61028-.61028.61028 48.36-10.224)"
           id="path111" />
        <path
           d="m57.808219 41.63069a9.45649 6.301245 0 1 1 -18.912191 .000001 9.45649 6.301245 0 1 1 18.912191 -.000001"
           id="path113" />
      </g>
      <g
         id="g115">
        <use
           transform="matrix(1.0074 0 0 1.0074 27.26 29.25)"
           xlink:href="#Z"
           id="use117" />
        <path
           d="m31.92553 48a15.765256 15.765256 0 0 1 -31.530512 0 15.765256 15.765256 0 1 1 31.530512 0"
           transform="matrix(.61028.61028-.61028.61028 35.17 9.11)"
           id="path119" />
        <path
           d="m25.286684 41.63069a9.45649 6.301245 0 1 1 -18.912192 .000001 9.45649 6.301245 0 1 1 18.912192 -.000001"
           id="path121" />
      </g>
      <g
         id="g123">
        <g
           transform="matrix(1.22737 0 0 1.22737 48.51-10.614)"
           id="g125">
          <use
             transform="matrix(.21721 0 0 .21721-15.608 30.62)"
             xlink:href="#Z"
             id="use127" />
          <g
             transform="translate(0-.156)"
             id="g129">
            <use
               transform="translate(.096)"
               xlink:href="#a"
               id="use131" />
            <path
               d="m-16.518264 33.1792a1.575261 .85083 0 1 1 -3.150391 0 1.575261 .85083 0 1 1 3.150391 0"
               id="path133" />
          </g>
        </g>
        <g
           transform="matrix(1.22737 0 0 1.22737 48.769-10.95)"
           id="g135">
          <use
             transform="matrix(.21721 0 0 .21721-11.177 26.25)"
             xlink:href="#Z"
             id="use137" />
          <g
             transform="matrix(.70711.70711-.70711.70711-16.863-11.704)"
             id="g139">
            <use
               xlink:href="#b"
               id="use141" />
            <path
               d="m31.807433 24.986145a.85083 1.575261 45 1 1 -2.227662 2.227662 .85083 1.575261 45 1 1 2.227662 -2.227662"
               id="path143" />
          </g>
        </g>
        <g
           transform="matrix(1.22737 0 0 1.22737 48.769.449)"
           id="g145">
          <use
             transform="matrix(.21721 0 0 .21721-11.177 26.25)"
             xlink:href="#Z"
             id="use147" />
          <g
             transform="matrix(.70711.70711-.70711.70711-16.863-11.704)"
             id="g149">
            <use
               xlink:href="#b"
               id="use151" />
            <use
               xlink:href="#c"
               id="use153" />
          </g>
        </g>
        <g
           transform="matrix(1.22737 0 0 1.22737 59.907-10.614)"
           id="g155">
          <use
             transform="matrix(.21721 0 0 .21721-15.608 30.62)"
             xlink:href="#Z"
             id="use157" />
          <g
             transform="translate(0-.156)"
             id="g159">
            <use
               transform="translate(.096)"
               xlink:href="#a"
               id="use161" />
            <path
               d="m-16.518264 33.1792a1.575261 .85083 0 1 1 -3.150391 0 1.575261 .85083 0 1 1 3.150391 0"
               id="path163" />
          </g>
        </g>
      </g>
    </g>
    <g
       transform="matrix(2.45684 0 0 2.45684-.595 893.17)"
       id="g165">
      <g
         id="g167">
        <use
           transform="matrix(1.0074 0 0 1.0074 27.26-3.277)"
           fill="url(#0)"
           xlink:href="#Z"
           id="use169" />
        <path
           d="M25.356667 25.356666A13.606388 13.606388 0 0 1 6.114329 6.114327 13.606388 13.606388 0 1 1 25.356667 25.356666"
           fill="url(#2)"
           id="path171" />
        <path
           d="m25.286683 9.109155a9.45649 6.301245 0 1 1 -18.91219 .000001 9.45649 6.301245 0 1 1 18.91219 -.000001"
           fill="url(#4)"
           id="path173" />
      </g>
      <g
         id="g175">
        <use
           transform="matrix(1.0074 0 0 1.0074 59.791-3.277)"
           fill="url(#6)"
           xlink:href="#Z"
           id="use177" />
        <g
           transform="matrix(.76285.76285-.76285.76285 23.57-33.09)"
           id="g179">
          <path
             d="m60.797903 15.814302a12.612205 12.612205 0 0 1 -25.22441 0 12.612205 12.612205 0 1 1 25.22441 0"
             fill="url(#7)"
             id="path181" />
          <path
             d="M49.9199 5.284113A5.840829 8.765528 45 1 1 37.524088 17.679926 5.840829 8.765528 45 1 1 49.9199 5.284113"
             fill="url(#9)"
             id="path183" />
        </g>
      </g>
      <g
         id="g185">
        <use
           transform="matrix(1.0074 0 0 1.0074 59.791 29.25)"
           fill="url(#A)"
           xlink:href="#Z"
           id="use187" />
        <path
           d="m63.60498 48a15.765256 15.765256 0 0 1 -31.530512 0 15.765256 15.765256 0 1 1 31.530512 0"
           fill="url(#B)"
           transform="matrix(.61028.61028-.61028.61028 48.36-10.224)"
           id="path189" />
        <path
           d="m57.808219 41.63069a9.45649 6.301245 0 1 1 -18.912191 .000001 9.45649 6.301245 0 1 1 18.912191 -.000001"
           fill="url(#D)"
           id="path191" />
      </g>
      <g
         id="g193">
        <use
           transform="matrix(1.0074 0 0 1.0074 27.26 29.25)"
           fill="url(#E)"
           xlink:href="#Z"
           id="use195" />
        <path
           d="m31.92553 48a15.765256 15.765256 0 0 1 -31.530512 0 15.765256 15.765256 0 1 1 31.530512 0"
           fill="url(#F)"
           transform="matrix(.61028.61028-.61028.61028 35.17 9.11)"
           id="path197" />
        <path
           d="m25.286684 41.63069a9.45649 6.301245 0 1 1 -18.912192 .000001 9.45649 6.301245 0 1 1 18.912192 -.000001"
           fill="url(#H)"
           id="path199" />
      </g>
      <g
         id="g201">
        <g
           transform="matrix(1.22737 0 0 1.22737 48.51-10.614)"
           id="g203">
          <use
             transform="matrix(.21721 0 0 .21721-15.608 30.62)"
             fill="url(#I)"
             xlink:href="#Z"
             id="use205" />
          <g
             transform="translate(0-.156)"
             id="g207">
            <use
               transform="translate(.096)"
               fill="url(#J)"
               xlink:href="#a"
               id="use209" />
            <path
               d="m-16.518264 33.1792a1.575261 .85083 0 1 1 -3.150391 0 1.575261 .85083 0 1 1 3.150391 0"
               fill="url(#L)"
               id="path211" />
          </g>
        </g>
        <g
           transform="matrix(1.22737 0 0 1.22737 48.769-10.95)"
           id="g213">
          <use
             transform="matrix(.21721 0 0 .21721-11.177 26.25)"
             fill="url(#N)"
             xlink:href="#Z"
             id="use215" />
          <g
             transform="matrix(.70711.70711-.70711.70711-16.863-11.704)"
             id="g217">
            <use
               fill="url(#O)"
               xlink:href="#b"
               id="use219" />
            <use
               fill="url(#Q)"
               xlink:href="#c"
               id="use221" />
          </g>
        </g>
        <g
           transform="matrix(1.22737 0 0 1.22737 48.769.449)"
           id="g223">
          <use
             transform="matrix(.21721 0 0 .21721-11.177 26.25)"
             fill="url(#R)"
             xlink:href="#Z"
             id="use225" />
          <g
             transform="matrix(.70711.70711-.70711.70711-16.863-11.704)"
             id="g227">
            <use
               fill="url(#S)"
               xlink:href="#b"
               id="use229" />
            <use
               fill="url(#T)"
               xlink:href="#c"
               id="use231" />
          </g>
        </g>
        <g
           transform="matrix(1.22737 0 0 1.22737 59.907-10.614)"
           id="g233">
          <use
             transform="matrix(.21721 0 0 .21721-15.608 30.62)"
             fill="url(#U)"
             xlink:href="#Z"
             id="use235" />
          <g
             transform="translate(0-.156)"
             id="g237">
            <use
               transform="translate(.096)"
               fill="url(#V)"
               xlink:href="#a"
               id="use239" />
            <path
               d="m-16.518264 33.1792a1.575261 .85083 0 1 1 -3.150391 0 1.575261 .85083 0 1 1 3.150391 0"
               fill="url(#W)"
               id="path241" />
          </g>
        </g>
      </g>
    </g>
    <g
       transform="translate(0 892.36)"
       id="g243">
      <g
         transform="translate(6.165 30)"
         opacity=".656"
         filter="url(#X)"
         id="g245">
        <g
           id="g247">
          <path
             d="m216.16 30.31c-2.25 0-4.281.531-6.06 1.563l7.66-6.428c1.781-1.031 3.812-1.562 6.06-1.563z"
             id="d" />
          <path
             d="m210.09 31.875c-.472.271-.887.557-1.246.858l7.66-6.428c.359-.301.774-.587 1.246-.858z"
             id="e" />
          <path
             d="m208.85 32.733c-.977.82-1.537 1.753-1.691 2.798l7.66-6.428c.154-1.046.714-1.978 1.691-2.798z"
             id="f" />
          <path
             d="m207.16 35.531l-4.813 31.344 7.66-6.428 4.813-31.344z"
             id="g" />
          <path
             d="m202.34 66.875c-.234 1.453.352 2.688 1.781 3.719l7.66-6.428c-1.43-1.031-2.02-2.266-1.781-3.719z"
             id="h" />
          <path
             d="m204.13 70.59c1.453 1.01 3.312 1.531 5.563 1.531l7.66-6.428c-2.25 0-4.109-.523-5.563-1.531z"
             id="i" />
          <path
             d="m209.69 72.13h8.156l7.66-6.428h-8.156z"
             id="j" />
          <path
             d="m217.84 72.13l-1.625 10.438 7.66-6.428 1.625-10.438z"
             id="k" />
          <path
             d="m216.22 82.56h16.344l7.66-6.428h-16.344z"
             id="l" />
          <path
             d="m232.56 82.56l1.625-10.438 7.66-6.428-1.625 10.438z"
             id="m" />
          <path
             d="m234.19 72.13h8.156l7.66-6.428h-8.156z"
             id="n" />
          <path
             d="m242.34 72.13c2.227 0 4.211-.523 5.969-1.531l7.66-6.428c-1.758 1.01-3.742 1.531-5.969 1.531z"
             id="o" />
          <path
             d="m248.31 70.59c.466-.273.879-.561 1.239-.863l7.66-6.428c-.36.302-.773.59-1.239.863z"
             id="p" />
          <path
             d="m249.55 69.73c.999-.838 1.589-1.788 1.761-2.856l7.66-6.428c-.172 1.068-.762 2.02-1.761 2.856z"
             id="q" />
          <path
             d="m251.31 66.875l3.188-20.875 7.66-6.428-3.188 20.875z"
             id="r" />
          <path
             d="m254.5 46h16.344l7.66-6.428h-16.344z"
             id="s" />
          <path
             d="m270.84 46h.125l7.66-6.428h-.125z"
             id="t" />
          <path
             d="m270.97 46l-4.063 26.13 7.66-6.428 4.063-26.12z"
             id="u" />
          <path
             d="m266.91 72.13h16.313l7.66-6.428h-16.313z"
             id="v" />
          <path
             d="m283.22 72.13l4.063-26.12 7.66-6.428-4.063 26.13z"
             id="w" />
          <path
             d="m287.28 46h16.281l7.66-6.428h-16.281z"
             id="x" />
          <path
             d="m303.56 46l-4.03 26.13 7.66-6.428 4.03-26.12z"
             id="y" />
          <path
             d="m299.53 72.13h16.313l7.66-6.428h-16.313z"
             id="z" />
          <path
             d="m315.84 72.13l5.656-36.594 7.66-6.428-5.656 36.594z"
             id="10" />
          <path
             d="m321.5 35.531h16.313l7.66-6.428h-16.313z"
             id="11" />
          <path
             d="m337.81 35.531l-5.625 36.594 7.66-6.428 5.625-36.594z"
             id="12" />
          <path
             d="m332.19 72.13h16.313l7.66-6.428h-16.313z"
             id="13" />
          <path
             d="m348.5 72.13l5.625-36.594 7.66-6.428-5.625 36.594z"
             id="14" />
          <path
             d="m354.13 35.531h16.375l7.66-6.428h-16.375z"
             id="15" />
          <path
             d="m370.5 35.531l-5.688 36.594 7.66-6.428 5.688-36.594z"
             id="16" />
          <path
             d="m364.81 72.13h16.313l7.66-6.428h-16.313z"
             id="17" />
          <path
             d="m381.13 72.13h16.375l7.66-6.428h-16.375z"
             id="18" />
          <path
             d="m397.5 72.13l.781-5.25 7.66-6.428-.781 5.25z"
             id="19" />
          <path
             d="m398.28 66.875h-16.313l7.66-6.428h16.313z"
             id="1A" />
          <path
             d="m381.97 66.875l4.844-31.344 7.66-6.428-4.844 31.344z"
             id="1B" />
          <path
             d="m386.81 35.531c.211-1.43-.414-2.648-1.844-3.656l7.66-6.428c1.43 1.01 2.055 2.227 1.844 3.656z"
             id="1C" />
          <path
             d="m384.97 31.875c-1.43-1.031-3.281-1.562-5.531-1.563l7.66-6.428c2.25 0 4.101.531 5.531 1.563z"
             id="1D" />
          <path
             d="m379.44 30.31c-12.258 0-24.492 0-36.75 0l7.66-6.428c12.258 0 24.492 0 36.75 0z"
             id="1E" />
          <path
             d="m342.69 30.31c-12.234 0-24.484 0-36.719 0l7.66-6.428c12.234 0 24.484 0 36.719 0z"
             id="1F" />
          <path
             d="m305.97 30.31l-1.625 10.469 7.66-6.428 1.625-10.469z"
             id="1G" />
          <path
             d="m304.34 40.781h-16.25l7.66-6.428h16.25z"
             id="1H" />
          <path
             d="m288.09 40.781l.781-5.25 7.66-6.428-.781 5.25z"
             id="1I" />
          <path
             d="m288.88 35.531h-16.344l7.66-6.428h16.344z"
             id="1J" />
          <path
             d="m272.53 35.531l-.813 5.25 7.66-6.428.813-5.25z"
             id="1K" />
          <path
             d="m271.72 40.781h-.063l7.66-6.428h.063z"
             id="1L" />
          <path
             d="m271.66 40.781h-16.344l7.66-6.428h16.344z"
             id="1M" />
          <path
             d="m255.31 40.781l.813-5.25 7.66-6.428-.813 5.25z"
             id="1N" />
          <path
             d="m256.13 35.531c.211-1.43-.414-2.648-1.844-3.656l7.66-6.428c1.43 1.01 2.055 2.227 1.844 3.656z"
             id="1O" />
          <path
             d="m254.28 31.875c-1.43-1.031-3.25-1.562-5.5-1.563l7.66-6.428c2.25 0 4.07.531 5.5 1.563z"
             id="1P" />
          <path
             d="m248.78 30.31h-32.625l7.66-6.428h32.625z"
             id="1Q" />
          <path
             d="m404 30.31l-.813 5.219 7.66-6.428.813-5.219z"
             id="1R" />
          <path
             d="m403.19 35.531h16.344l7.66-6.428h-16.344z"
             id="1S" />
          <path
             d="m419.53 35.531l.813-5.219 7.66-6.428-.813 5.219z"
             id="1T" />
          <path
             d="m420.34 30.31h-16.344l7.66-6.428h16.344z"
             id="1U" />
          <path
             d="m534.59 30.31l-1.625 10.469 7.66-6.428 1.625-10.469z"
             id="1V" />
          <path
             d="m532.97 40.781h-16.313l7.66-6.428h16.313z"
             id="1W" />
          <path
             d="m516.66 40.781h-8.156l7.66-6.428h8.156z"
             id="1X" />
          <path
             d="m508.5 40.781c-2.25 0-4.25.523-6.03 1.531l7.66-6.428c1.781-1.01 3.781-1.531 6.03-1.531z"
             id="1Y" />
          <path
             d="m502.47 42.31c-.478.274-.9.564-1.265.871l7.66-6.428c.365-.306.787-.597 1.265-.871z"
             id="1Z" />
          <path
             d="m501.2 43.18c-.978.821-1.55 1.759-1.704 2.817l7.66-6.428c.154-1.058.726-1.996 1.704-2.817z"
             id="1a" />
          <path
             d="m499.5 46l-3.188 20.875 7.66-6.428 3.188-20.875z"
             id="1b" />
          <path
             d="m496.31 66.875c-.234 1.453.352 2.688 1.781 3.719l7.66-6.428c-1.43-1.031-2.02-2.266-1.781-3.719z"
             id="1c" />
          <path
             d="m498.09 70.59c1.453 1.01 3.312 1.531 5.563 1.531l7.66-6.428c-2.25 0-4.109-.523-5.563-1.531z"
             id="1d" />
          <path
             d="m503.66 72.13h1.344l7.66-6.428h-1.344z"
             id="1e" />
          <path
             d="m505 72.13h6.813l7.66-6.428h-6.813z"
             id="1f" />
          <path
             d="m511.81 72.13h16.344l7.66-6.428h-16.344z"
             id="1g" />
          <path
             d="m528.16 72.13h8.125l7.66-6.428h-8.125z"
             id="1h" />
          <path
             d="m536.28 72.13h8.188l7.66-6.428h-8.188z"
             id="1i" />
          <path
             d="m544.47 72.13h16.313l7.66-6.428h-16.313z"
             id="1j" />
          <path
             d="m560.78 72.13l.813-5.25 7.66-6.428-.813 5.25z"
             id="1k" />
          <path
             d="m561.59 66.875h-16.313l7.66-6.428h16.313z"
             id="1l" />
          <path
             d="m545.28 66.875l5.625-36.563 7.66-6.428-5.625 36.563z"
             id="1m" />
          <path
             d="m550.91 30.31h-16.313l7.66-6.428h16.313z"
             id="1n" />
          <path
             d="m223.5 35.531h16.313l7.66-6.428h-16.313z"
             id="1o" />
          <path
             d="m239.81 35.531l-4.813 31.344 7.66-6.428 4.813-31.344z"
             id="1p" />
          <path
             d="m235 66.875h-16.344l7.66-6.428h16.344z"
             id="1q" />
          <path
             d="m218.66 66.875l4.844-31.344 7.66-6.428-4.844 31.344z"
             id="1r" />
          <path
             d="m402.38 40.781l-4.813 31.344 7.66-6.428 4.813-31.344z"
             id="1s" />
          <path
             d="m397.56 72.13h16.313l7.66-6.428h-16.313z"
             id="1t" />
          <path
             d="m413.88 72.13l4.03-26.12 7.66-6.428-4.03 26.13z"
             id="1u" />
          <path
             d="m417.91 46h16.281l7.66-6.428h-16.281z"
             id="1v" />
          <path
             d="m434.19 46l-4 26.13 7.66-6.428 4-26.12z"
             id="1w" />
          <path
             d="m430.19 72.13h16.313l7.66-6.428h-16.313z"
             id="1x" />
          <path
             d="m446.5 72.13l4.03-26.12 7.66-6.428-4.03 26.13z"
             id="1y" />
          <path
             d="m450.53 46h16.313l7.66-6.428h-16.313z"
             id="1z" />
          <path
             d="m466.84 46l-4 26.13 7.66-6.428 4-26.12z"
             id="20" />
          <path
             d="m462.84 72.13h16.313l7.66-6.428h-16.313z"
             id="21" />
          <path
             d="m479.16 72.13h16.313l7.66-6.428h-16.313z"
             id="22" />
          <path
             d="m495.47 72.13l.813-5.25 7.66-6.428-.813 5.25z"
             id="23" />
          <path
             d="m496.28 66.875h-16.313l7.66-6.428h16.313z"
             id="24" />
          <path
             d="m479.97 66.875l3.188-20.875 7.66-6.428-3.188 20.875z"
             id="25" />
          <path
             d="m483.16 46c.211-1.453-.383-2.68-1.813-3.688l7.66-6.428c1.43 1.01 2.023 2.234 1.813 3.688z"
             id="26" />
          <path
             d="m481.34 42.31c-1.43-1.01-3.281-1.531-5.531-1.531l7.66-6.428c2.25 0 4.102.523 5.531 1.531z"
             id="27" />
          <path
             d="m475.81 40.781h-40.781l7.66-6.428h40.781z"
             id="28" />
          <path
             d="m435.03 40.781h-32.656l7.66-6.428h32.656z"
             id="29" />
          <path
             d="m515.84 46h16.313l7.66-6.428h-16.313z"
             id="2A" />
          <path
             d="m532.16 46l-3.219 20.875 7.66-6.428 3.219-20.875z"
             id="2B" />
          <path
             d="m528.94 66.875h-16.313l7.66-6.428h16.313z"
             id="2C" />
          <path
             d="m512.63 66.875l3.219-20.875 7.66-6.428-3.219 20.875z"
             id="2D" />
        </g>
        <path
           d="m216.16 30.31c-2.25 0-4.281.531-6.06 1.563-1.758 1.01-2.727 2.227-2.938 3.656l-4.813 31.344c-.234 1.453.352 2.688 1.781 3.719 1.453 1.01 3.312 1.531 5.563 1.531h8.156l-1.625 10.438h16.344l1.625-10.438h8.156c2.227 0 4.211-.523 5.969-1.531 1.758-1.031 2.766-2.266 3-3.719l3.188-20.875h16.344.125l-4.063 26.13h16.313l4.063-26.12h16.281l-4.03 26.13h16.313l5.656-36.594h16.313l-5.625 36.594h16.313l5.625-36.594h16.375l-5.688 36.594h16.313 16.375l.781-5.25h-16.313l4.844-31.344c.211-1.43-.414-2.648-1.844-3.656-1.43-1.031-3.281-1.562-5.531-1.563-12.258 0-24.492 0-36.75 0-12.234 0-24.484 0-36.719 0l-1.625 10.469h-16.25l.781-5.25h-16.344l-.813 5.25h-.063-16.344l.813-5.25c.211-1.43-.414-2.648-1.844-3.656-1.43-1.031-3.25-1.562-5.5-1.563h-32.625m187.84 0l-.813 5.219h16.344l.813-5.219h-16.344m130.59 0l-1.625 10.469h-16.313-8.156c-2.25 0-4.25.523-6.03 1.531-1.758 1.01-2.758 2.234-2.969 3.688l-3.188 20.875c-.234 1.453.352 2.688 1.781 3.719 1.453 1.01 3.312 1.531 5.563 1.531h1.344 6.813 16.344 8.125 8.188 16.313l.813-5.25h-16.313l5.625-36.563h-16.313m-311.09 5.219h16.313l-4.813 31.344h-16.344l4.844-31.344m178.88 5.25l-4.813 31.344h16.313l4.03-26.12h16.281l-4 26.13h16.313l4.03-26.12h16.313l-4 26.13h16.313 16.313l.813-5.25h-16.313l3.188-20.875c.211-1.453-.383-2.68-1.813-3.688-1.43-1.01-3.281-1.531-5.531-1.531h-40.781-32.656m113.47 5.219h16.313l-3.219 20.875h-16.313l3.219-20.875"
           id="path348" />
      </g>
      <g
         transform="translate(-1.515 26.776)"
         id="g350">
        <g
           fill="#1a1a1a"
           id="g352">
          <use
             xlink:href="#d"
             id="use354" />
          <use
             xlink:href="#e"
             id="use356" />
          <use
             xlink:href="#f"
             id="use358" />
          <use
             xlink:href="#g"
             id="use360" />
          <use
             xlink:href="#h"
             id="use362" />
          <use
             xlink:href="#i"
             id="use364" />
          <use
             xlink:href="#j"
             id="use366" />
          <use
             xlink:href="#k"
             id="use368" />
          <use
             xlink:href="#l"
             id="use370" />
          <use
             xlink:href="#m"
             id="use372" />
          <use
             xlink:href="#n"
             id="use374" />
          <use
             xlink:href="#o"
             id="use376" />
          <use
             xlink:href="#p"
             id="use378" />
          <use
             xlink:href="#q"
             id="use380" />
          <use
             xlink:href="#r"
             id="use382" />
          <use
             xlink:href="#s"
             id="use384" />
          <use
             xlink:href="#t"
             id="use386" />
          <use
             xlink:href="#u"
             id="use388" />
          <use
             xlink:href="#v"
             id="use390" />
          <use
             xlink:href="#w"
             id="use392" />
          <use
             xlink:href="#x"
             id="use394" />
          <use
             xlink:href="#y"
             id="use396" />
          <use
             xlink:href="#z"
             id="use398" />
          <use
             xlink:href="#10"
             id="use400" />
          <use
             xlink:href="#11"
             id="use402" />
          <use
             xlink:href="#12"
             id="use404" />
          <use
             xlink:href="#13"
             id="use406" />
          <use
             xlink:href="#14"
             id="use408" />
          <use
             xlink:href="#15"
             id="use410" />
          <use
             xlink:href="#16"
             id="use412" />
          <use
             xlink:href="#17"
             id="use414" />
          <use
             xlink:href="#18"
             id="use416" />
          <use
             xlink:href="#19"
             id="use418" />
          <use
             xlink:href="#1A"
             id="use420" />
          <use
             xlink:href="#1B"
             id="use422" />
          <use
             xlink:href="#1C"
             id="use424" />
          <use
             xlink:href="#1D"
             id="use426" />
          <use
             xlink:href="#1E"
             id="use428" />
          <use
             xlink:href="#1F"
             id="use430" />
          <use
             xlink:href="#1G"
             id="use432" />
          <use
             xlink:href="#1H"
             id="use434" />
          <use
             xlink:href="#1I"
             id="use436" />
          <use
             xlink:href="#1J"
             id="use438" />
          <use
             xlink:href="#1K"
             id="use440" />
          <use
             xlink:href="#1L"
             id="use442" />
          <use
             xlink:href="#1M"
             id="use444" />
          <use
             xlink:href="#1N"
             id="use446" />
          <use
             xlink:href="#1O"
             id="use448" />
          <use
             xlink:href="#1P"
             id="use450" />
          <use
             xlink:href="#1Q"
             id="use452" />
          <use
             xlink:href="#1R"
             id="use454" />
          <use
             xlink:href="#1S"
             id="use456" />
          <use
             xlink:href="#1T"
             id="use458" />
          <use
             xlink:href="#1U"
             id="use460" />
          <use
             xlink:href="#1V"
             id="use462" />
          <use
             xlink:href="#1W"
             id="use464" />
          <use
             xlink:href="#1X"
             id="use466" />
          <use
             xlink:href="#1Y"
             id="use468" />
          <use
             xlink:href="#1Z"
             id="use470" />
          <use
             xlink:href="#1a"
             id="use472" />
          <use
             xlink:href="#1b"
             id="use474" />
          <use
             xlink:href="#1c"
             id="use476" />
          <use
             xlink:href="#1d"
             id="use478" />
          <use
             xlink:href="#1e"
             id="use480" />
          <use
             xlink:href="#1f"
             id="use482" />
          <use
             xlink:href="#1g"
             id="use484" />
          <use
             xlink:href="#1h"
             id="use486" />
          <use
             xlink:href="#1i"
             id="use488" />
          <use
             xlink:href="#1j"
             id="use490" />
          <use
             xlink:href="#1k"
             id="use492" />
          <use
             xlink:href="#1l"
             id="use494" />
          <use
             xlink:href="#1m"
             id="use496" />
          <use
             xlink:href="#1n"
             id="use498" />
          <use
             xlink:href="#1o"
             id="use500" />
          <use
             xlink:href="#1p"
             id="use502" />
          <use
             xlink:href="#1q"
             id="use504" />
          <use
             xlink:href="#1r"
             id="use506" />
          <use
             xlink:href="#1s"
             id="use508" />
          <use
             xlink:href="#1t"
             id="use510" />
          <use
             xlink:href="#1u"
             id="use512" />
          <use
             xlink:href="#1v"
             id="use514" />
          <use
             xlink:href="#1w"
             id="use516" />
          <use
             xlink:href="#1x"
             id="use518" />
          <use
             xlink:href="#1y"
             id="use520" />
          <use
             xlink:href="#1z"
             id="use522" />
          <use
             xlink:href="#20"
             id="use524" />
          <use
             xlink:href="#21"
             id="use526" />
          <use
             xlink:href="#22"
             id="use528" />
          <use
             xlink:href="#23"
             id="use530" />
          <use
             xlink:href="#24"
             id="use532" />
          <use
             xlink:href="#25"
             id="use534" />
          <use
             xlink:href="#26"
             id="use536" />
          <use
             xlink:href="#27"
             id="use538" />
          <use
             xlink:href="#28"
             id="use540" />
          <use
             xlink:href="#29"
             id="use542" />
          <use
             xlink:href="#2A"
             id="use544" />
          <use
             xlink:href="#2B"
             id="use546" />
          <use
             xlink:href="#2C"
             id="use548" />
          <use
             xlink:href="#2D"
             id="use550" />
        </g>
        <path
           d="m216.16 30.31c-2.25 0-4.281.531-6.06 1.563-1.758 1.01-2.727 2.227-2.938 3.656l-4.813 31.344c-.234 1.453.352 2.688 1.781 3.719 1.453 1.01 3.312 1.531 5.563 1.531h8.156l-1.625 10.438h16.344l1.625-10.438h8.156c2.227 0 4.211-.523 5.969-1.531 1.758-1.031 2.766-2.266 3-3.719l3.188-20.875h16.344.125l-4.063 26.13h16.313l4.063-26.12h16.281l-4.03 26.13h16.313l5.656-36.594h16.313l-5.625 36.594h16.313l5.625-36.594h16.375l-5.688 36.594h16.313 16.375l.781-5.25h-16.313l4.844-31.344c.211-1.43-.414-2.648-1.844-3.656-1.43-1.031-3.281-1.562-5.531-1.563-12.258 0-24.492 0-36.75 0-12.234 0-24.484 0-36.719 0l-1.625 10.469h-16.25l.781-5.25h-16.344l-.813 5.25h-.063-16.344l.813-5.25c.211-1.43-.414-2.648-1.844-3.656-1.43-1.031-3.25-1.562-5.5-1.563h-32.625m187.84 0l-.813 5.219h16.344l.813-5.219h-16.344m130.59 0l-1.625 10.469h-16.313-8.156c-2.25 0-4.25.523-6.03 1.531-1.758 1.01-2.758 2.234-2.969 3.688l-3.188 20.875c-.234 1.453.352 2.688 1.781 3.719 1.453 1.01 3.312 1.531 5.563 1.531h1.344 6.813 16.344 8.125 8.188 16.313l.813-5.25h-16.313l5.625-36.563h-16.313m-311.09 5.219h16.313l-4.813 31.344h-16.344l4.844-31.344m178.88 5.25l-4.813 31.344h16.313l4.03-26.12h16.281l-4 26.13h16.313l4.03-26.12h16.313l-4 26.13h16.313 16.313l.813-5.25h-16.313l3.188-20.875c.211-1.453-.383-2.68-1.813-3.688-1.43-1.01-3.281-1.531-5.531-1.531h-40.781-32.656m113.47 5.219h16.313l-3.219 20.875h-16.313l3.219-20.875"
           fill="#ececec"
           id="path552" />
      </g>
    </g>
  </g>
</svg>
