<svg xmlns="http://www.w3.org/2000/svg" xmlns:xlink="http://www.w3.org/1999/xlink" viewBox="0 0 64 64"><defs><path id="W" d="m3.214 18.874c0 8.095-6.562 14.656-14.656 14.656-8.095 0-14.656-6.562-14.656-14.656 0-8.095 6.562-14.656 14.656-14.656 8.095 0 14.656 6.562 14.656 14.656"/><path id="X" d="m60.797903 15.814302a12.612205 12.612205 0 0 1 -25.22441 0 12.612205 12.612205 0 1 1 25.22441 0"/><path id="Y" d="M49.9199 5.284113A5.840829 8.765528 45 1 1 37.524088 17.679926 5.840829 8.765528 45 1 1 49.9199 5.284113"/><linearGradient xlink:href="#0" id="M" gradientUnits="userSpaceOnUse" gradientTransform="matrix(.07885 0 0 .09728-18.921-24.547)" x1="440.73" y1="282.35" x2="444.45" y2="373.65"/><linearGradient xlink:href="#2" id="L" gradientUnits="userSpaceOnUse" x1="15.775" y1="2.046" x2="15.526" y2="29.26"/><linearGradient xlink:href="#0" id="V" gradientUnits="userSpaceOnUse" gradientTransform="matrix(.07885 0 0 .09728-18.921 7.975)" x1="440.73" y1="282.35" x2="444.45" y2="373.65"/><linearGradient xlink:href="#1" id="K" gradientUnits="userSpaceOnUse" x1="-11.346" y1="4.359" x2="-11.538" y2="32.913"/><linearGradient xlink:href="#7" id="I" gradientUnits="userSpaceOnUse" x1="39.462" y1="7.04" x2="57.35" y2="25.04"/><linearGradient xlink:href="#1" id="H" gradientUnits="userSpaceOnUse" x1="-11.346" y1="4.359" x2="-11.538" y2="32.913"/><linearGradient xlink:href="#0" id="J" gradientUnits="userSpaceOnUse" x1="39.665" y1="7.426" x2="45.679" y2="13.06"/><linearGradient xlink:href="#1" id="N" gradientUnits="userSpaceOnUse" x1="-11.346" y1="4.359" x2="-11.538" y2="32.913"/><linearGradient xlink:href="#4" id="U" gradientUnits="userSpaceOnUse" x1="5.394" y1="36.89" x2="27.2" y2="58.83"/><linearGradient xlink:href="#1" id="T" gradientUnits="userSpaceOnUse" x1="-11.346" y1="4.359" x2="-11.538" y2="32.913"/><linearGradient xlink:href="#5" id="O" gradientUnits="userSpaceOnUse" x1="39.462" y1="7.04" x2="57.35" y2="25.04"/><linearGradient xlink:href="#0" id="S" gradientUnits="userSpaceOnUse" gradientTransform="matrix(.07885 0 0 .09728 13.6 7.975)" x1="440.73" y1="282.35" x2="444.45" y2="373.65"/><linearGradient xlink:href="#1" id="Q" gradientUnits="userSpaceOnUse" x1="-11.346" y1="4.359" x2="-11.538" y2="32.913"/><linearGradient xlink:href="#0" id="P" gradientUnits="userSpaceOnUse" x1="39.665" y1="7.426" x2="45.679" y2="13.06"/><linearGradient xlink:href="#3" id="R" gradientUnits="userSpaceOnUse" x1="36.796" y1="37.17" x2="59.02" y2="58.97"/><linearGradient xlink:href="#0" id="G" gradientUnits="userSpaceOnUse" x1="39.665" y1="7.426" x2="45.679" y2="13.06"/><linearGradient xlink:href="#6" id="9" gradientUnits="userSpaceOnUse" x1="39.462" y1="7.04" x2="57.35" y2="25.04"/><linearGradient xlink:href="#1" id="8" gradientUnits="userSpaceOnUse" x1="-11.346" y1="4.359" x2="-11.538" y2="32.913"/><linearGradient x1="440.73" y1="183.3" gradientTransform="matrix(1 0 0 .83315 0 68.53)" x2="457.54" gradientUnits="userSpaceOnUse" y2="394.88" id="0"><stop stop-color="#fff" stop-opacity=".627"/><stop offset="1" stop-opacity="0" stop-color="#fff"/></linearGradient><linearGradient id="1"><stop stop-color="#0a0a0a"/><stop offset="1" stop-color="#969696"/></linearGradient><linearGradient xlink:href="#7" id="F" gradientUnits="userSpaceOnUse" x1="39.462" y1="7.04" x2="57.35" y2="25.04"/><linearGradient xlink:href="#1" id="E" gradientUnits="userSpaceOnUse" x1="-11.346" y1="4.359" x2="-11.538" y2="32.913"/><linearGradient xlink:href="#0" id="D" gradientUnits="userSpaceOnUse" x1="39.665" y1="7.426" x2="45.679" y2="13.06"/><linearGradient xlink:href="#0" id="A" gradientUnits="userSpaceOnUse" x1="39.665" y1="7.426" x2="45.679" y2="13.06"/><linearGradient xlink:href="#1" id="B" gradientUnits="userSpaceOnUse" x1="-11.346" y1="4.359" x2="-11.538" y2="32.913"/><linearGradient xlink:href="#6" id="C" gradientUnits="userSpaceOnUse" x1="39.462" y1="7.04" x2="57.35" y2="25.04"/><radialGradient id="7" gradientUnits="userSpaceOnUse" cy="421.87" cx="262.05" r="223.36"><stop stop-color="#808080"/><stop offset="1"/></radialGradient><radialGradient id="2" gradientUnits="userSpaceOnUse" cy="421.87" cx="262.05" r="223.36"><stop stop-color="#3cf"/><stop stop-color="#031cff" offset="1"/></radialGradient><radialGradient id="3" gradientUnits="userSpaceOnUse" cy="421.87" cx="262.05" r="223.36"><stop stop-color="#ffff80"/><stop stop-color="#e47a00" offset="1"/></radialGradient><radialGradient id="6" gradientUnits="userSpaceOnUse" cy="421.87" cx="262.05" r="223.36"><stop stop-color="#fff"/><stop stop-color="#c8c8c8" offset="1"/></radialGradient><radialGradient id="4" gradientUnits="userSpaceOnUse" cy="421.87" cx="262.05" r="223.36"><stop stop-color="#6f3"/><stop stop-color="#597f0e" offset="1"/></radialGradient><radialGradient id="5" gradientUnits="userSpaceOnUse" cy="421.87" cx="262.05" r="223.36"><stop stop-color="#f30"/><stop stop-color="#af0707" offset="1"/></radialGradient></defs><use transform="matrix(1.0074 0 0 1.0074 27.26-3.277)" fill="url(#K)" xlink:href="#W"/><path d="M25.356667 25.356666A13.606388 13.606388 0 0 1 6.114329 6.114327 13.606388 13.606388 0 1 1 25.356667 25.356666" fill="url(#L)"/><path d="m25.286683 9.109155a9.45649 6.301245 0 1 1 -18.91219 .000001 9.45649 6.301245 0 1 1 18.91219 -.000001" fill="url(#M)"/><use transform="matrix(1.0074 0 0 1.0074 59.791-3.277)" fill="url(#N)" xlink:href="#W"/><g transform="matrix(.76285.76285-.76285.76285 23.57-33.09)"><use fill="url(#O)" xlink:href="#X"/><path d="M49.9199 5.284113A5.840829 8.765528 45 1 1 37.524088 17.679926 5.840829 8.765528 45 1 1 49.9199 5.284113" fill="url(#P)"/></g><use transform="matrix(1.0074 0 0 1.0074 59.791 29.25)" fill="url(#Q)" xlink:href="#W"/><g transform="matrix(.61028.61028-.61028.61028 48.36-10.224)"><path d="m63.60498 48a15.765256 15.765256 0 0 1 -31.530512 0 15.765256 15.765256 0 1 1 31.530512 0" fill="url(#R)"/></g><path d="m57.808219 41.63069a9.45649 6.301245 0 1 1 -18.912191 .000001 9.45649 6.301245 0 1 1 18.912191 -.000001" fill="url(#S)"/><use transform="matrix(1.0074 0 0 1.0074 27.26 29.25)" fill="url(#T)" xlink:href="#W"/><g transform="matrix(.61028.61028-.61028.61028 35.17 9.11)"><path d="m31.92553 48a15.765256 15.765256 0 0 1 -31.530512 0 15.765256 15.765256 0 1 1 31.530512 0" fill="url(#U)"/></g><path d="m25.286684 41.63069a9.45649 6.301245 0 1 1 -18.912192 .000001 9.45649 6.301245 0 1 1 18.912192 -.000001" fill="url(#V)"/><g transform="matrix(.19723-.19723.19723.19723 21.489 36.22)"><g transform="matrix(.70711.70711-.70711.70711-1.129-44.797)"><use transform="matrix(1.0074 0 0 1.0074 59.791-3.277)" fill="url(#8)" xlink:href="#W"/><g transform="matrix(.76285.76285-.76285.76285 23.57-33.09)"><use fill="url(#9)" xlink:href="#X"/><use fill="url(#A)" xlink:href="#Y"/></g></g><g transform="matrix(.70711.70711-.70711.70711 29.834-13.833)"><use transform="matrix(1.0074 0 0 1.0074 59.791-3.277)" fill="url(#B)" xlink:href="#W"/><g transform="matrix(.76285.76285-.76285.76285 23.57-33.09)"><use fill="url(#C)" xlink:href="#X"/><use fill="url(#D)" xlink:href="#Y"/></g></g><g transform="matrix(.70711.70711-.70711.70711 29.834-44.797)"><use transform="matrix(1.0074 0 0 1.0074 59.791-3.277)" fill="url(#E)" xlink:href="#W"/><g transform="matrix(.76285.76285-.76285.76285 23.57-33.09)"><use fill="url(#F)" xlink:href="#X"/><use fill="url(#G)" xlink:href="#Y"/></g></g><g transform="matrix(.70711.70711-.70711.70711-1.129-13.833)"><use transform="matrix(1.0074 0 0 1.0074 59.791-3.277)" fill="url(#H)" xlink:href="#W"/><g transform="matrix(.76285.76285-.76285.76285 23.57-33.09)"><use fill="url(#I)" xlink:href="#X"/><use fill="url(#J)" xlink:href="#Y"/></g></g></g></svg>