<svg xmlns="http://www.w3.org/2000/svg" xmlns:xlink="http://www.w3.org/1999/xlink" viewBox="0 0 64 64"><defs><linearGradient xlink:href="#2" id="8" gradientUnits="userSpaceOnUse" gradientTransform="matrix(.07885 0 0 .09728-18.921 7.975)" x1="440.73" y1="282.35" x2="444.45" y2="373.65"/><linearGradient xlink:href="#2" id="5" gradientUnits="userSpaceOnUse" gradientTransform="matrix(.07885 0 0 .09728-18.921 7.975)" x1="440.73" y1="282.35" x2="444.45" y2="373.65"/><linearGradient xlink:href="#1" id="7" gradientUnits="userSpaceOnUse" x1="5.394" y1="36.89" x2="27.2" y2="58.83"/><linearGradient xlink:href="#0" id="6" gradientUnits="userSpaceOnUse" x1="-11.346" y1="4.359" x2="-11.538" y2="32.913"/><linearGradient xlink:href="#1" id="4" gradientUnits="userSpaceOnUse" x1="5.394" y1="36.89" x2="27.2" y2="58.83"/><linearGradient xlink:href="#0" id="3" gradientUnits="userSpaceOnUse" x1="-11.346" y1="4.359" x2="-11.538" y2="32.913"/><linearGradient id="0"><stop stop-color="#0a0a0a"/><stop offset="1" stop-color="#969696"/></linearGradient><linearGradient x1="440.73" y1="183.3" gradientTransform="matrix(1 0 0 .83315 0 68.53)" x2="457.54" gradientUnits="userSpaceOnUse" y2="394.88" id="2"><stop stop-color="#fff" stop-opacity=".627"/><stop offset="1" stop-opacity="0" stop-color="#fff"/></linearGradient><radialGradient id="1" gradientUnits="userSpaceOnUse" cy="421.87" cx="262.05" r="223.36"><stop stop-color="#6f3"/><stop stop-color="#597f0e" offset="1"/></radialGradient></defs><g transform="translate(.182)"><g transform="translate(-.099-16.265)"><path d="m3.214 18.874c0 8.095-6.562 14.656-14.656 14.656-8.095 0-14.656-6.562-14.656-14.656 0-8.095 6.562-14.656 14.656-14.656 8.095 0 14.656 6.562 14.656 14.656" transform="matrix(1.0074 0 0 1.0074 27.26 29.25)" fill="url(#3)"/><path d="m31.92553 48a15.765256 15.765256 0 0 1 -31.530512 0 15.765256 15.765256 0 1 1 31.530512 0" fill="url(#4)" transform="matrix(.61028.61028-.61028.61028 35.17 9.11)"/><path d="m25.286684 41.63069a9.45649 6.301245 0 1 1 -18.912192 .000001 9.45649 6.301245 0 1 1 18.912192 -.000001" fill="url(#5)"/></g><g transform="translate(32.26-16.265)"><path d="m3.214 18.874c0 8.095-6.562 14.656-14.656 14.656-8.095 0-14.656-6.562-14.656-14.656 0-8.095 6.562-14.656 14.656-14.656 8.095 0 14.656 6.562 14.656 14.656" transform="matrix(1.0074 0 0 1.0074 27.26 29.25)" fill="url(#6)"/><path d="m31.92553 48a15.765256 15.765256 0 0 1 -31.530512 0 15.765256 15.765256 0 1 1 31.530512 0" fill="url(#7)" transform="matrix(.61028.61028-.61028.61028 35.17 9.11)"/><path d="m25.286684 41.63069a9.45649 6.301245 0 1 1 -18.912192 .000001 9.45649 6.301245 0 1 1 18.912192 -.000001" fill="url(#8)"/></g></g><path stroke-miterlimit="3" d="m32 32l25.15-9.737m-25.15 9.737l-25.15 9.737" fill="none" stroke="#f00" stroke-linejoin="round" stroke-linecap="round" stroke-width="10.156"/></svg>