<?xml version="1.0" encoding="UTF-8" standalone="no"?>
<svg
   xmlns:dc="http://purl.org/dc/elements/1.1/"
   xmlns:cc="http://creativecommons.org/ns#"
   xmlns:rdf="http://www.w3.org/1999/02/22-rdf-syntax-ns#"
   xmlns:svg="http://www.w3.org/2000/svg"
   xmlns="http://www.w3.org/2000/svg"
   xmlns:xlink="http://www.w3.org/1999/xlink"
   xmlns:sodipodi="http://sodipodi.sourceforge.net/DTD/sodipodi-0.dtd"
   xmlns:inkscape="http://www.inkscape.org/namespaces/inkscape"
   viewBox="0 0 64 64"
   id="svg2"
   version="1.1"
   inkscape:version="0.48.4 r9939"
   width="100%"
   height="100%"
   sodipodi:docname="twoPegs.svg">
  <metadata
     id="metadata49">
    <rdf:RDF>
      <cc:Work
         rdf:about="">
        <dc:format>image/svg+xml</dc:format>
        <dc:type
           rdf:resource="http://purl.org/dc/dcmitype/StillImage" />
        <dc:title></dc:title>
      </cc:Work>
    </rdf:RDF>
  </metadata>
  <sodipodi:namedview
     pagecolor="#ffffff"
     bordercolor="#666666"
     borderopacity="1"
     objecttolerance="10"
     gridtolerance="10"
     guidetolerance="10"
     inkscape:pageopacity="0"
     inkscape:pageshadow="2"
     inkscape:window-width="640"
     inkscape:window-height="480"
     id="namedview47"
     showgrid="false"
     inkscape:zoom="3.6875"
     inkscape:cx="32"
     inkscape:cy="32"
     inkscape:window-x="0"
     inkscape:window-y="27"
     inkscape:window-maximized="0"
     inkscape:current-layer="svg2" />
  <defs
     id="defs4">
    <linearGradient
       xlink:href="#2"
       id="8"
       gradientUnits="userSpaceOnUse"
       gradientTransform="matrix(.07885 0 0 .09728-18.921 7.975)"
       x1="440.73"
       y1="282.35"
       x2="444.45"
       y2="373.65" />
    <linearGradient
       xlink:href="#2"
       id="5"
       gradientUnits="userSpaceOnUse"
       gradientTransform="matrix(.07885 0 0 .09728-18.921 7.975)"
       x1="440.73"
       y1="282.35"
       x2="444.45"
       y2="373.65" />
    <linearGradient
       xlink:href="#1"
       id="7"
       gradientUnits="userSpaceOnUse"
       x1="5.394"
       y1="36.89"
       x2="27.2"
       y2="58.83" />
    <linearGradient
       xlink:href="#0"
       id="6"
       gradientUnits="userSpaceOnUse"
       x1="-11.346"
       y1="4.359"
       x2="-11.538"
       y2="32.913" />
    <linearGradient
       xlink:href="#1"
       id="4"
       gradientUnits="userSpaceOnUse"
       x1="5.394"
       y1="36.89"
       x2="27.2"
       y2="58.83" />
    <linearGradient
       xlink:href="#0"
       id="3"
       gradientUnits="userSpaceOnUse"
       x1="-11.346"
       y1="4.359"
       x2="-11.538"
       y2="32.913" />
    <linearGradient
       id="0">
      <stop
         stop-color="#0a0a0a"
         id="stop13" />
      <stop
         offset="1"
         stop-color="#969696"
         id="stop15" />
    </linearGradient>
    <linearGradient
       x1="440.73"
       y1="183.3"
       gradientTransform="matrix(1 0 0 .83315 0 68.53)"
       x2="457.54"
       gradientUnits="userSpaceOnUse"
       y2="394.88"
       id="2">
      <stop
         stop-color="#fff"
         stop-opacity=".627"
         id="stop18" />
      <stop
         offset="1"
         stop-opacity="0"
         stop-color="#fff"
         id="stop20" />
    </linearGradient>
    <radialGradient
       id="1"
       gradientUnits="userSpaceOnUse"
       cy="421.87"
       cx="262.05"
       r="223.36">
      <stop
         stop-color="#6f3"
         id="stop23" />
      <stop
         stop-color="#597f0e"
         offset="1"
         id="stop25" />
    </radialGradient>
  </defs>
  <g
     transform="translate(.182)"
     id="g27">
    <g
       transform="translate(-.099-16.265)"
       id="g29">
      <path
         d="m3.214 18.874c0 8.095-6.562 14.656-14.656 14.656-8.095 0-14.656-6.562-14.656-14.656 0-8.095 6.562-14.656 14.656-14.656 8.095 0 14.656 6.562 14.656 14.656"
         transform="matrix(1.0074 0 0 1.0074 27.26 29.25)"
         fill="url(#3)"
         id="path31" />
      <path
         d="m31.92553 48a15.765256 15.765256 0 0 1 -31.530512 0 15.765256 15.765256 0 1 1 31.530512 0"
         fill="url(#4)"
         transform="matrix(.61028.61028-.61028.61028 35.17 9.11)"
         id="path33" />
      <path
         d="m25.286684 41.63069a9.45649 6.301245 0 1 1 -18.912192 .000001 9.45649 6.301245 0 1 1 18.912192 -.000001"
         fill="url(#5)"
         id="path35" />
    </g>
    <g
       transform="translate(32.26-16.265)"
       id="g37">
      <path
         d="m3.214 18.874c0 8.095-6.562 14.656-14.656 14.656-8.095 0-14.656-6.562-14.656-14.656 0-8.095 6.562-14.656 14.656-14.656 8.095 0 14.656 6.562 14.656 14.656"
         transform="matrix(1.0074 0 0 1.0074 27.26 29.25)"
         fill="url(#6)"
         id="path39" />
      <path
         d="m31.92553 48a15.765256 15.765256 0 0 1 -31.530512 0 15.765256 15.765256 0 1 1 31.530512 0"
         fill="url(#7)"
         transform="matrix(.61028.61028-.61028.61028 35.17 9.11)"
         id="path41" />
      <path
         d="m25.286684 41.63069a9.45649 6.301245 0 1 1 -18.912192 .000001 9.45649 6.301245 0 1 1 18.912192 -.000001"
         fill="url(#8)"
         id="path43" />
    </g>
  </g>
  <path
     stroke-miterlimit="3"
     d="m32 32l25.15-9.737m-25.15 9.737l-25.15 9.737"
     fill="none"
     stroke="#f00"
     stroke-linejoin="round"
     stroke-linecap="round"
     stroke-width="10.156"
     id="path45" />
</svg>
